<?xml version="1.0" encoding="UTF-8"?>
<svg id="Layer_2" xmlns="http://www.w3.org/2000/svg" viewBox="0 0 210.07 224">
  <defs>
    <style>
      .cls-1 {
        fill: #fcee21;
      }

      .cls-1, .cls-2, .cls-3 {
        stroke: #231f20;
        stroke-miterlimit: 10;
        stroke-width: .5px;
      }

      .cls-2 {
        fill: #4ebc83;
      }

      .cls-3 {
        fill: #d366a7;
      }
    </style>
  </defs>
  <g id="Layer_1-2" data-name="Layer_1">
    <g>
      <g>
        <polygon class="cls-3" points="100.02 100.26 119.61 77.37 149.55 79.88 129.88 102.44 100.02 100.26"/>
        <polygon class="cls-2" points="99.88 100.16 129.8 102.37 139.97 127.1 110.02 124.8 99.88 100.16"/>
        <polygon class="cls-1" points="149.49 79.74 129.8 102.37 139.97 127.1 159.63 104.38 149.49 79.74"/>
      </g>
      <g>
        <polygon class="cls-3" points="39.85 23.15 59.44 .26 89.38 2.77 69.71 25.33 39.85 23.15"/>
        <polygon class="cls-2" points="39.71 23.05 69.63 25.27 79.8 49.99 49.85 47.69 39.71 23.05"/>
        <polygon class="cls-1" points="89.32 2.64 69.63 25.27 79.8 49.99 99.46 27.28 89.32 2.64"/>
      </g>
      <g>
        <polygon class="cls-3" points="69.27 25.53 88.86 2.63 118.8 5.15 99.13 27.71 69.27 25.53"/>
        <polygon class="cls-2" points="69.13 25.42 99.05 27.64 109.22 52.36 79.27 50.06 69.13 25.42"/>
        <polygon class="cls-1" points="118.75 5.01 99.05 27.64 109.22 52.36 128.88 29.65 118.75 5.01"/>
      </g>
      <g>
        <polygon class="cls-3" points="99.06 27.8 118.64 4.9 148.59 7.42 128.91 29.98 99.06 27.8"/>
        <polygon class="cls-2" points="98.92 27.69 128.84 29.91 139.01 54.64 109.06 52.34 98.92 27.69"/>
        <polygon class="cls-1" points="148.53 7.28 128.84 29.91 139.01 54.64 158.67 31.92 148.53 7.28"/>
      </g>
      <g>
        <polygon class="cls-3" points="20.1 45.66 39.69 22.77 69.63 25.28 49.96 47.84 20.1 45.66"/>
        <polygon class="cls-2" points="19.96 45.56 49.88 47.77 60.06 72.5 30.1 70.2 19.96 45.56"/>
        <polygon class="cls-1" points="69.58 25.14 49.88 47.77 60.06 72.5 79.72 49.78 69.58 25.14"/>
      </g>
      <g>
        <polygon class="cls-3" points="150.16 151.63 169.75 128.74 199.7 131.25 180.02 153.81 150.16 151.63"/>
        <polygon class="cls-2" points="150.02 151.53 179.94 153.75 190.12 178.47 160.16 176.17 150.02 151.53"/>
        <polygon class="cls-1" points="199.64 131.12 179.94 153.75 190.12 178.47 209.78 155.76 199.64 131.12"/>
      </g>
      <g>
        <polygon class="cls-3" points="140.08 127 159.66 104.1 189.61 106.62 169.93 129.18 140.08 127"/>
        <polygon class="cls-2" points="139.94 126.89 169.86 129.11 180.03 153.83 150.08 151.53 139.94 126.89"/>
        <polygon class="cls-1" points="189.55 106.48 169.86 129.11 180.03 153.83 199.69 131.12 189.55 106.48"/>
      </g>
      <g>
        <polygon class="cls-3" points="129.94 102.36 149.53 79.46 179.47 81.98 159.79 104.54 129.94 102.36"/>
        <polygon class="cls-2" points="129.8 102.25 159.72 104.47 169.89 129.19 139.94 126.89 129.8 102.25"/>
        <polygon class="cls-1" points="179.41 81.84 159.72 104.47 169.89 129.19 189.55 106.48 179.41 81.84"/>
      </g>
      <g>
        <polygon class="cls-3" points="130.44 174.18 150.02 151.29 179.97 153.8 160.29 176.36 130.44 174.18"/>
        <polygon class="cls-2" points="130.3 174.08 160.21 176.3 170.39 201.02 140.43 198.72 130.3 174.08"/>
        <polygon class="cls-1" points="179.91 153.66 160.21 176.3 170.39 201.02 190.05 178.3 179.91 153.66"/>
      </g>
      <g>
        <polygon class="cls-3" points="51.33 192.06 70.92 169.16 100.86 171.68 81.19 194.24 51.33 192.06"/>
        <polygon class="cls-2" points="51.19 191.95 81.11 194.17 91.28 218.89 61.33 216.59 51.19 191.95"/>
        <polygon class="cls-1" points="100.81 171.54 81.11 194.17 91.28 218.89 110.94 196.18 100.81 171.54"/>
      </g>
      <g>
        <polygon class="cls-3" points="81.29 194.38 100.88 171.48 130.82 174 111.15 196.56 81.29 194.38"/>
        <polygon class="cls-2" points="81.15 194.27 111.07 196.49 121.24 221.21 91.29 218.91 81.15 194.27"/>
        <polygon class="cls-1" points="130.77 173.86 111.07 196.49 121.24 221.21 140.91 198.5 130.77 173.86"/>
      </g>
      <g>
        <polygon class="cls-3" points="41.24 167.42 60.83 144.52 90.77 147.04 71.1 169.6 41.24 167.42"/>
        <polygon class="cls-2" points="41.1 167.31 71.02 169.53 81.19 194.26 51.24 191.96 41.1 167.31"/>
        <polygon class="cls-1" points="90.72 146.9 71.02 169.53 81.19 194.26 100.86 171.54 90.72 146.9"/>
      </g>
      <g>
        <polygon class="cls-3" points="31.06 142.55 50.65 119.66 80.59 122.17 60.92 144.73 31.06 142.55"/>
        <polygon class="cls-2" points="30.92 142.45 60.84 144.67 71.01 169.39 41.06 167.09 30.92 142.45"/>
        <polygon class="cls-1" points="80.53 122.04 60.84 144.67 71.01 169.39 90.67 146.68 80.53 122.04"/>
      </g>
      <g>
        <polygon class="cls-3" points="20.84 117.7 40.42 94.81 70.37 97.32 50.69 119.88 20.84 117.7"/>
        <polygon class="cls-2" points="20.7 117.6 50.62 119.82 60.79 144.54 30.84 142.24 20.7 117.6"/>
        <polygon class="cls-1" points="70.31 97.19 50.62 119.82 60.79 144.54 80.45 121.83 70.31 97.19"/>
      </g>
      <g>
        <polygon class="cls-3" points="10.65 92.84 30.24 69.94 60.19 72.46 40.51 95.02 10.65 92.84"/>
        <polygon class="cls-2" points="10.52 92.73 40.43 94.95 50.61 119.68 20.65 117.38 10.52 92.73"/>
        <polygon class="cls-1" points="60.13 72.32 40.43 94.95 50.61 119.68 70.27 96.96 60.13 72.32"/>
      </g>
      <g>
        <polygon class="cls-3" points=".53 68.22 20.11 45.33 50.06 47.84 30.38 70.4 .53 68.22"/>
        <polygon class="cls-2" points=".39 68.11 30.3 70.33 40.48 95.06 10.52 92.76 .39 68.11"/>
        <polygon class="cls-1" points="50 47.7 30.3 70.33 40.48 95.06 60.14 72.34 50 47.7"/>
      </g>
      <g>
        <polygon class="cls-3" points="110.69 196.69 130.28 173.79 160.22 176.31 140.54 198.87 110.69 196.69"/>
        <polygon class="cls-2" points="110.55 196.58 140.47 198.8 150.64 223.53 120.69 221.22 110.55 196.58"/>
        <polygon class="cls-1" points="160.16 176.17 140.47 198.8 150.64 223.53 170.3 200.81 160.16 176.17"/>
      </g>
    </g>
  </g>
</svg>